<svg width="84" height="74" viewBox="0 0 84 74" fill="none" xmlns="http://www.w3.org/2000/svg">
<path d="M79.4438 10.0253C82.4971 17.5483 78.8737 26.1221 71.3507 29.1754C70.5208 29.5122 69.6781 29.7678 68.8315 29.9458C64.1204 30.9366 58.8591 32.2841 56.3382 36.3855C53.3951 41.1741 55.0036 47.3927 59.3496 50.9571C68.015 58.0642 75.0268 67.4315 79.3829 78.6187C92.9059 113.348 75.7149 152.464 40.9856 165.987C6.25636 179.51 -32.8599 162.319 -46.3829 127.59C-59.9059 92.8607 -42.7149 53.7445 -7.98562 40.2214C7.18342 34.3148 23.1894 34.2678 37.5341 38.9824C42.7299 40.69 48.6536 39.072 51.5174 34.4125L52.5823 32.68C54.694 29.2441 53.7172 24.8191 52.2006 21.0823C49.1473 13.5592 52.7707 4.98544 60.2937 1.93215C67.8167 -1.12114 76.3906 2.5023 79.4438 10.0253Z" fill="#7DED61"/>
</svg>
