<svg xmlns="http://www.w3.org/2000/svg" version="1.1" xmlns:xlink="http://www.w3.org/1999/xlink" xmlns:svgjs="http://svgjs.com/svgjs" width="1440" height="560" preserveAspectRatio="none" viewBox="0 0 1440 560"><g mask="url(&quot;#SvgjsMask1009&quot;)" fill="none"><path d="M1194.735,436.953C1242.958,439.385,1290.968,416.681,1314.64,374.598C1337.921,333.211,1328.381,283.041,1304.355,242.082C1280.658,201.685,1241.569,170.349,1194.735,170.191C1147.658,170.032,1105.564,199.58,1083.823,241.336C1063.6,280.177,1072.501,325.38,1094.099,363.473C1116.056,402.199,1150.274,434.71,1194.735,436.953" fill="rgba(28, 83, 142, 0.4)" class="triangle-float2"></path><path d="M764.834,15.539C778.206,14.966,789.447,6.686,796.278,-4.823C803.277,-16.614,805.522,-30.684,799.615,-43.058C792.778,-57.381,780.699,-70.276,764.834,-70.695C748.414,-71.129,734.416,-59.494,726.719,-44.983C719.503,-31.379,720.142,-14.942,728.348,-1.912C736.048,10.314,750.398,16.157,764.834,15.539" fill="rgba(28, 83, 142, 0.4)" class="triangle-float2"></path><path d="M1232.618,575.722C1255.889,574.413,1273.876,556.428,1283.888,535.38C1292.534,517.203,1287.833,497.124,1278.482,479.299C1268.199,459.7,1254.742,438.271,1232.618,437.654C1209.835,437.019,1193.81,457.058,1182.101,476.613C1169.947,496.912,1159.532,520.693,1170.276,541.772C1181.793,564.367,1207.297,577.147,1232.618,575.722" fill="rgba(28, 83, 142, 0.4)" class="triangle-float3"></path><path d="M314.46 472.19 a172.47 172.47 0 1 0 344.94 0 a172.47 172.47 0 1 0 -344.94 0z" fill="rgba(28, 83, 142, 0.4)" class="triangle-float2"></path><path d="M131.115,530.256C167.024,527.764,190.533,496.876,208.417,465.638C226.146,434.671,241.135,398.659,224.539,367.07C207.043,333.768,168.733,318.528,131.115,318.499C93.442,318.47,57.243,334.876,37.445,366.927C16.604,400.667,12.966,443.429,32.696,477.831C52.516,512.39,91.372,533.014,131.115,530.256" fill="rgba(28, 83, 142, 0.4)" class="triangle-float1"></path><path d="M425.1972500491656 110.62674321061313L561.2309090503155 237.72277660470252 600.601324615122 79.81666451199337z" fill="rgba(28, 83, 142, 0.4)" class="triangle-float2"></path><path d="M154.11189752149627 93.25578234154617L273.03126886432324 99.48808250735907 160.3441976873092-25.663589001280798z" fill="rgba(28, 83, 142, 0.4)" class="triangle-float1"></path><path d="M1262.634,230.967C1314.858,232.177,1361.262,200.657,1388.058,155.815C1415.625,109.683,1426.681,50.648,1397.26,5.675C1369.701,-36.451,1312.972,-36.327,1262.634,-35.91C1213.351,-35.502,1157.842,-33.979,1131.816,7.874C1104.81,51.304,1121.018,106.11,1146.887,150.227C1172.39,193.72,1212.229,229.799,1262.634,230.967" fill="rgba(28, 83, 142, 0.4)" class="triangle-float3"></path><path d="M1511.2314380140012 326.29461212816744L1374.730753686544 230.71580399129795 1415.6526298771319 462.7952964556247z" fill="rgba(28, 83, 142, 0.4)" class="triangle-float1"></path><path d="M202.596,333.948C232.852,332.978,255.836,309.524,270.214,282.884C283.769,257.769,288.047,227.456,273.239,203.059C258.895,179.427,230.24,171.696,202.596,171.484C174.484,171.268,145.394,178.404,130.047,201.959C113.358,227.574,112.297,260.686,127.023,287.477C142.291,315.254,170.916,334.964,202.596,333.948" fill="rgba(28, 83, 142, 0.4)" class="triangle-float2"></path></g><defs><mask id="SvgjsMask1009"><rect width="1440" height="560" fill="#ffffff"></rect></mask><style>
            @keyframes float1 {
                0%{transform: translate(0, 0)}
                50%{transform: translate(-10px, 0)}
                100%{transform: translate(0, 0)}
            }

            .triangle-float1 {
                animation: float1 5s infinite;
            }

            @keyframes float2 {
                0%{transform: translate(0, 0)}
                50%{transform: translate(-5px, -5px)}
                100%{transform: translate(0, 0)}
            }

            .triangle-float2 {
                animation: float2 4s infinite;
            }

            @keyframes float3 {
                0%{transform: translate(0, 0)}
                50%{transform: translate(0, -10px)}
                100%{transform: translate(0, 0)}
            }

            .triangle-float3 {
                animation: float3 6s infinite;
            }
        </style></defs></svg>