<svg width="20" height="20" viewBox="0 0 20 20" fill="none" xmlns="http://www.w3.org/2000/svg">
<path opacity="0.4" d="M16.3691 7.90702C16.3691 7.96368 15.925 13.581 15.6713 15.9451C15.5125 17.3959 14.5772 18.2758 13.1743 18.3008C12.0964 18.325 11.0412 18.3333 10.003 18.3333C8.90076 18.3333 7.82284 18.325 6.77654 18.3008C5.42064 18.2683 4.48456 17.3709 4.33381 15.9451C4.07284 13.5727 3.63682 7.96368 3.62871 7.90702C3.62061 7.73619 3.67572 7.5737 3.78756 7.44203C3.89778 7.32037 4.05663 7.24704 4.22359 7.24704H15.7824C15.9485 7.24704 16.0993 7.32037 16.2184 7.44203C16.3294 7.5737 16.3854 7.73619 16.3691 7.90702Z" fill="#EB5757"/>
<path d="M17.5 4.98071C17.5 4.63822 17.2301 4.3699 16.9059 4.3699H14.4762C13.9818 4.3699 13.5522 4.01824 13.442 3.52242L13.3059 2.91495C13.1154 2.18081 12.4581 1.66666 11.7206 1.66666H8.2802C7.53458 1.66666 6.88378 2.18081 6.68603 2.95494L6.55879 3.52326C6.44775 4.01824 6.01821 4.3699 5.52464 4.3699H3.09488C2.76988 4.3699 2.5 4.63822 2.5 4.98071V5.29736C2.5 5.63152 2.76988 5.90817 3.09488 5.90817H16.9059C17.2301 5.90817 17.5 5.63152 17.5 5.29736V4.98071Z" fill="#EB5757"/>
</svg>
