<svg width="32" height="32" viewBox="0 0 32 32" fill="none" xmlns="http://www.w3.org/2000/svg">
<g clip-path="url(#clip0_507_458)">
<path d="M30.7733 20L29.3333 11.88C29.2533 11.1467 28.68 10.5467 27.5867 9.93336C27.3743 9.60879 27.0937 9.33447 26.7643 9.12952C26.435 8.92457 26.065 8.79392 25.68 8.74669C25.3237 8.15643 24.7574 7.72263 24.0948 7.53224C23.4321 7.34185 22.722 7.40892 22.1067 7.72002C21.8264 7.34432 21.452 7.04914 21.0213 6.86421C20.5906 6.67929 20.1188 6.61116 19.6533 6.66669C19.413 6.24675 19.0628 5.90012 18.6405 5.66396C18.2182 5.4278 17.7396 5.31099 17.2559 5.32606C16.7723 5.34113 16.3019 5.48751 15.8951 5.74951C15.4883 6.01151 15.1604 6.37926 14.9467 6.81336C14.7402 6.73829 14.5252 6.68903 14.3067 6.66669C14.0732 6.25945 13.7363 5.92108 13.3301 5.68576C12.9239 5.45044 12.4628 5.32652 11.9933 5.32652C11.5239 5.32652 11.0628 5.45044 10.6566 5.68576C10.2504 5.92108 9.91352 6.25945 9.68 6.66669C9.27333 6.61252 8.85964 6.65292 8.47112 6.78473C8.08261 6.91655 7.72975 7.13623 7.44 7.42669C7.18853 7.35611 6.92771 7.32463 6.66667 7.33336C5.95942 7.33336 5.28115 7.61431 4.78105 8.1144C4.28095 8.6145 4 9.29278 4 10C4 10 4 10.08 4 10.1334C3.65892 10.2925 3.36033 10.5301 3.1286 10.8267C2.89688 11.1234 2.73859 11.4706 2.66667 11.84L1.22667 20C0.869792 20.2025 0.570084 20.4922 0.355561 20.8419C0.141038 21.1917 0.0187059 21.5901 0 22C0.0142708 22.3138 0.0968231 22.6208 0.241901 22.8994C0.386978 23.1781 0.591089 23.4217 0.84 23.6134C0.894413 23.6839 0.962419 23.7429 1.04 23.7867C3.46667 25.68 9.76 26.6667 16 26.6667C22.24 26.6667 28.5333 25.68 30.96 23.7734C31.0376 23.7295 31.1056 23.6706 31.16 23.6C31.4072 23.4098 31.6104 23.1683 31.7554 22.8921C31.9004 22.6159 31.9838 22.3116 32 22C31.9813 21.5901 31.859 21.1917 31.6444 20.8419C31.4299 20.4922 31.1302 20.2025 30.7733 20ZM5.04 11.08C5.16603 11.0036 5.26318 10.8875 5.31625 10.75C5.36933 10.6125 5.37533 10.4613 5.33333 10.32C5.32049 10.2137 5.32049 10.1063 5.33333 10C5.33373 9.76747 5.39495 9.53906 5.51091 9.33748C5.62687 9.1359 5.79353 8.96815 5.99436 8.85089C6.19518 8.73363 6.42319 8.67094 6.65573 8.66903C6.88828 8.66712 7.11728 8.72607 7.32 8.84002C7.46944 8.92454 7.64573 8.94814 7.81214 8.90592C7.97856 8.8637 8.12226 8.7589 8.21333 8.61336C8.38024 8.35305 8.63242 8.15885 8.92673 8.06399C9.22104 7.96913 9.53917 7.97951 9.82667 8.09336C9.9107 8.12015 9.99921 8.13001 10.0871 8.12235C10.1749 8.11469 10.2604 8.08968 10.3385 8.04875C10.4167 8.00783 10.4859 7.95181 10.5422 7.88394C10.5986 7.81606 10.6408 7.73769 10.6667 7.65336C10.744 7.38294 10.9049 7.14391 11.1264 6.97047C11.3478 6.79702 11.6184 6.69804 11.8995 6.68769C12.1806 6.67733 12.4577 6.75613 12.6913 6.91281C12.9249 7.06949 13.1029 7.29603 13.2 7.56002C13.2636 7.69312 13.3639 7.80526 13.4891 7.88322C13.6143 7.96118 13.7592 8.00171 13.9067 8.00002C14.2527 7.99434 14.5874 8.12344 14.84 8.36002C14.9308 8.45992 15.0498 8.5299 15.1812 8.56071C15.3126 8.59152 15.4503 8.58171 15.576 8.53257C15.7017 8.48344 15.8096 8.39729 15.8853 8.28554C15.961 8.17378 16.001 8.04167 16 7.90669C15.9664 7.55307 16.0747 7.20058 16.301 6.92678C16.5273 6.65298 16.853 6.48028 17.2067 6.44669C17.5603 6.41309 17.9128 6.52135 18.1866 6.74765C18.4604 6.97394 18.6331 7.29973 18.6667 7.65336C18.6917 7.744 18.7357 7.82832 18.7957 7.90077C18.8556 7.97322 18.9303 8.03216 19.0146 8.07372C19.099 8.11527 19.1912 8.13851 19.2852 8.14189C19.3792 8.14528 19.4729 8.12874 19.56 8.09336C19.7245 8.02912 19.9001 7.99819 20.0766 8.00236C20.2531 8.00654 20.4271 8.04574 20.5883 8.11768C20.7496 8.18963 20.8949 8.29288 21.016 8.42146C21.137 8.55004 21.2313 8.70138 21.2933 8.86669C21.3319 8.97506 21.3978 9.07162 21.4847 9.14698C21.5716 9.22234 21.6765 9.27394 21.7892 9.29676C21.902 9.31957 22.0187 9.31283 22.1281 9.27719C22.2374 9.24155 22.3357 9.17822 22.4133 9.09336C22.5699 8.92712 22.7665 8.80388 22.9844 8.73543C23.2022 8.66699 23.434 8.65565 23.6575 8.70249C23.881 8.74933 24.0887 8.85278 24.2607 9.00294C24.4328 9.15309 24.5634 9.34491 24.64 9.56002C24.7026 9.69107 24.8008 9.80183 24.9234 9.87965C25.0461 9.95747 25.1881 9.99918 25.3333 10C25.5791 9.99578 25.8212 10.0595 26.0329 10.1842C26.2447 10.3089 26.4179 10.4897 26.5333 10.7067C26.6031 10.8303 26.7106 10.9284 26.84 10.9867C27.72 11.4134 28.04 11.7867 28.04 12C28.04 12.9067 23.8 14.6667 16.04 14.6667C8.28 14.6667 4 12.9067 4 12C4 11.8134 4.26667 11.4667 5.04 11.08Z" fill="#585CC6"/>
<path d="M9.99992 12C10.1767 12 10.3463 11.9298 10.4713 11.8048C10.5963 11.6798 10.6666 11.5102 10.6666 11.3334C10.6666 11.1566 10.7368 10.987 10.8618 10.862C10.9869 10.7369 11.1564 10.6667 11.3333 10.6667C11.5101 10.6667 11.6796 10.5965 11.8047 10.4714C11.9297 10.3464 11.9999 10.1769 11.9999 10C11.9999 9.82323 11.9297 9.65366 11.8047 9.52864C11.6796 9.40361 11.5101 9.33337 11.3333 9.33337C10.8028 9.33337 10.2941 9.54409 9.91904 9.91916C9.54397 10.2942 9.33325 10.8029 9.33325 11.3334C9.33325 11.5102 9.40349 11.6798 9.52851 11.8048C9.65354 11.9298 9.82311 12 9.99992 12ZM19.3333 12C19.5101 12 19.6796 11.9298 19.8047 11.8048C19.9297 11.6798 19.9999 11.5102 19.9999 11.3334C19.9999 11.1566 20.0702 10.987 20.1952 10.862C20.3202 10.7369 20.4898 10.6667 20.6666 10.6667C20.8434 10.6667 21.013 10.5965 21.138 10.4714C21.263 10.3464 21.3333 10.1769 21.3333 10C21.3333 9.82323 21.263 9.65366 21.138 9.52864C21.013 9.40361 20.8434 9.33337 20.6666 9.33337C20.1362 9.33337 19.6274 9.54409 19.2524 9.91916C18.8773 10.2942 18.6666 10.8029 18.6666 11.3334C18.6666 11.5102 18.7368 11.6798 18.8618 11.8048C18.9869 11.9298 19.1564 12 19.3333 12ZM23.3333 12C23.5101 12 23.6796 12.0703 23.8047 12.1953C23.9297 12.3203 23.9999 12.4899 23.9999 12.6667C23.9999 12.8435 24.0702 13.0131 24.1952 13.1381C24.3202 13.2631 24.4898 13.3334 24.6666 13.3334C24.8434 13.3334 25.013 13.2631 25.138 13.1381C25.263 13.0131 25.3333 12.8435 25.3333 12.6667C25.3333 12.1363 25.1225 11.6276 24.7475 11.2525C24.3724 10.8774 23.8637 10.6667 23.3333 10.6667C23.1564 10.6667 22.9869 10.7369 22.8618 10.862C22.7368 10.987 22.6666 11.1566 22.6666 11.3334C22.6666 11.5102 22.7368 11.6798 22.8618 11.8048C22.9869 11.9298 23.1564 12 23.3333 12ZM13.9999 13.3334C14.1767 13.3334 14.3463 13.2631 14.4713 13.1381C14.5963 13.0131 14.6666 12.8435 14.6666 12.6667C14.6666 12.4899 14.7368 12.3203 14.8618 12.1953C14.9869 12.0703 15.1564 12 15.3333 12C15.5101 12 15.6796 11.9298 15.8047 11.8048C15.9297 11.6798 15.9999 11.5102 15.9999 11.3334C15.9999 11.1566 15.9297 10.987 15.8047 10.862C15.6796 10.7369 15.5101 10.6667 15.3333 10.6667C14.8028 10.6667 14.2941 10.8774 13.919 11.2525C13.544 11.6276 13.3333 12.1363 13.3333 12.6667C13.3333 12.8435 13.4035 13.0131 13.5285 13.1381C13.6535 13.2631 13.8231 13.3334 13.9999 13.3334Z" fill="#585CC6"/>
</g>
<defs>
<clipPath id="clip0_507_458">
<rect width="32" height="32" fill="white"/>
</clipPath>
</defs>
</svg>
